<svg width="343" height="260" viewBox="0 0 343 260" fill="none" xmlns="http://www.w3.org/2000/svg">
<path d="M343 256.293L97.4644 260L0 242.702H152.155L343 256.293Z" fill="#474747"/>
<path d="M69.4832 244.758C69.4832 244.758 70.0577 232.703 81.8356 234.104L69.4832 244.758Z" fill="white"/>
<path d="M66.1552 233.286C69.4108 233.286 72.05 230.644 72.05 227.384C72.05 224.124 69.4108 221.481 66.1552 221.481C62.8997 221.481 60.2605 224.124 60.2605 227.384C60.2605 230.644 62.8997 233.286 66.1552 233.286Z" fill="#1ED760"/>
<path d="M66.86 237.324H65.196V248.987H66.86V237.324Z" fill="white"/>
<path d="M244.609 247.817C244.609 247.817 245.183 235.762 256.961 237.164L244.609 247.817Z" fill="white"/>
<path d="M241.281 236.346C244.536 236.346 247.175 233.703 247.175 230.443C247.175 227.183 244.536 224.54 241.281 224.54C238.025 224.54 235.386 227.183 235.386 230.443C235.386 233.703 238.025 236.346 241.281 236.346Z" fill="#1ED760"/>
<path d="M241.985 240.383H240.322V252.046H241.985V240.383Z" fill="white"/>
<path d="M284.987 249.877C284.987 249.877 285.562 237.822 297.339 239.223L284.987 249.877Z" fill="white"/>
<path d="M281.659 238.405C284.915 238.405 287.554 235.762 287.554 232.502C287.554 229.242 284.915 226.599 281.659 226.599C278.404 226.599 275.764 229.242 275.764 232.502C275.764 235.762 278.404 238.405 281.659 238.405Z" fill="#1ED760"/>
<path d="M282.364 242.442H280.7V254.106H282.364V242.442Z" fill="white"/>
<path d="M322.223 250.277C322.223 250.277 322.797 238.222 334.575 239.624L322.223 250.277Z" fill="white"/>
<path d="M318.895 238.806C322.15 238.806 324.789 236.163 324.789 232.903C324.789 229.643 322.15 227 318.895 227C315.639 227 313 229.643 313 232.903C313 236.163 315.639 238.806 318.895 238.806Z" fill="#1ED760"/>
<path d="M319.599 242.843H317.936V254.506H319.599V242.843Z" fill="white"/>
<path d="M115.958 238.992C115.958 238.992 116.533 226.937 128.31 228.339L115.958 238.992Z" fill="white"/>
<path d="M112.63 227.521C115.886 227.521 118.525 224.878 118.525 221.618C118.525 218.358 115.886 215.715 112.63 215.715C109.375 215.715 106.735 218.358 106.735 221.618C106.735 224.878 109.375 227.521 112.63 227.521Z" fill="#1ED760"/>
<path d="M113.335 231.558H111.671V243.221H113.335V231.558Z" fill="white"/>
<path d="M28.355 241.052C28.355 241.052 28.9295 228.997 40.7074 230.398L28.355 241.052Z" fill="white"/>
<path d="M25.0271 229.58C28.2826 229.58 30.9218 226.937 30.9218 223.677C30.9218 220.417 28.2826 217.774 25.0271 217.774C21.7715 217.774 19.1323 220.417 19.1323 223.677C19.1323 226.937 21.7715 229.58 25.0271 229.58Z" fill="#1ED760"/>
<path d="M25.7318 233.617H24.0679V245.281H25.7318V233.617Z" fill="white"/>
<path d="M170.878 220.104C206.348 220.104 235.102 191.31 235.102 155.792C235.102 120.273 206.348 91.4799 170.878 91.4799C135.408 91.4799 106.654 120.273 106.654 155.792C106.654 191.31 135.408 220.104 170.878 220.104Z" fill="white"/>
<path d="M130.445 160.954C132.04 159.042 134.035 157.504 136.289 156.449C138.543 155.393 141 154.846 143.489 154.846C145.977 154.846 148.434 155.393 150.688 156.449C152.942 157.504 154.937 159.042 156.532 160.954C159.261 158.345 161.148 154.977 161.948 151.285C162.749 147.592 162.426 143.745 161.023 140.237C159.619 136.73 157.199 133.724 154.074 131.606C150.949 129.489 147.262 128.357 143.489 128.357C139.715 128.357 136.028 129.489 132.903 131.606C129.778 133.724 127.358 136.73 125.954 140.237C124.551 143.745 124.229 147.592 125.029 151.285C125.829 154.977 127.716 158.345 130.445 160.954Z" fill="#121212"/>
<path d="M181.447 160.954C183.042 159.042 185.037 157.504 187.29 156.449C189.544 155.393 192.002 154.846 194.49 154.846C196.978 154.846 199.436 155.393 201.69 156.449C203.943 157.504 205.938 159.042 207.533 160.954C210.263 158.345 212.149 154.977 212.95 151.285C213.75 147.592 213.428 143.745 212.024 140.237C210.621 136.73 208.201 133.724 205.075 131.606C201.95 129.489 198.263 128.357 194.49 128.357C190.717 128.357 187.03 129.489 183.905 131.606C180.779 133.724 178.359 136.73 176.956 140.237C175.552 143.745 175.23 147.592 176.03 151.285C176.831 154.977 178.717 158.345 181.447 160.954Z" fill="#121212"/>
<path d="M137.045 147.338C140.633 147.338 143.543 144.425 143.543 140.832C143.543 137.238 140.633 134.325 137.045 134.325C133.456 134.325 130.547 137.238 130.547 140.832C130.547 144.425 133.456 147.338 137.045 147.338Z" fill="white"/>
<path d="M188.044 147.338C191.633 147.338 194.542 144.425 194.542 140.832C194.542 137.238 191.633 134.325 188.044 134.325C184.456 134.325 181.547 137.238 181.547 140.832C181.547 144.425 184.456 147.338 188.044 147.338Z" fill="white"/>
<path d="M124.599 179.436C128.772 179.436 132.155 176.048 132.155 171.87C132.155 167.691 128.772 164.304 124.599 164.304C120.426 164.304 117.043 167.691 117.043 171.87C117.043 176.048 120.426 179.436 124.599 179.436Z" fill="#FF6584"/>
<path d="M211.491 179.436C215.664 179.436 219.046 176.048 219.046 171.87C219.046 167.691 215.664 164.304 211.491 164.304C207.318 164.304 203.935 167.691 203.935 171.87C203.935 176.048 207.318 179.436 211.491 179.436Z" fill="#FF6584"/>
<path d="M168.045 156.737L162.378 181.327L171.823 171.87L168.045 156.737Z" fill="#FF6584"/>
<path d="M197.163 251.314L190.729 245.907L190.879 251.314H188.88L188.721 245.597L180.034 251.314H176.398L188.656 243.246L187.826 213.51L189.82 213.455L190.654 243.231L200.269 251.314H197.163Z" fill="white"/>
<path d="M166.937 251.314L160.503 245.907L160.653 251.314H158.66L158.5 245.597L149.814 251.314H146.177L158.431 243.246L157.601 213.51L159.599 213.455L160.428 243.231L170.044 251.314H166.937Z" fill="white"/>
<path d="M171.823 86.7511C170.061 86.7511 168.506 88.1218 167.467 90.2273C166.551 87.0613 164.626 84.8596 162.378 84.8596C162.225 84.8748 162.074 84.9003 161.924 84.9359C161.06 81.5556 159.052 79.185 156.711 79.185C153.582 79.185 151.044 83.4193 151.044 88.6426C151.044 93.8659 153.582 98.1003 156.711 98.1003C156.864 98.0851 157.016 98.0595 157.165 98.0239C158.029 101.404 160.037 103.775 162.378 103.775C164.14 103.775 165.695 102.404 166.734 100.299C167.65 103.465 169.575 105.666 171.823 105.666C174.952 105.666 177.49 101.432 177.49 96.2087C177.49 90.9854 174.952 86.7511 171.823 86.7511Z" fill="white"/>
<path d="M110.596 180.163C108.115 180.163 105.659 179.674 103.367 178.723C101.075 177.773 98.9929 176.379 97.2389 174.623C95.4848 172.867 94.0935 170.781 93.1442 168.486C92.1949 166.192 91.7063 163.732 91.7063 161.248V151.79C91.7063 146.774 93.6964 141.962 97.2389 138.415C100.781 134.868 105.586 132.875 110.596 132.875V180.163Z" fill="#1ED760"/>
<path d="M231.161 132.875C233.641 132.875 236.098 133.364 238.389 134.315C240.681 135.265 242.763 136.659 244.517 138.415C246.272 140.172 247.663 142.257 248.612 144.552C249.561 146.847 250.05 149.306 250.05 151.79V161.248C250.05 163.732 249.561 166.192 248.612 168.486C247.663 170.781 246.272 172.867 244.517 174.623C242.763 176.379 240.681 177.773 238.389 178.723C236.098 179.674 233.641 180.163 231.161 180.163L231.161 132.875Z" fill="#1ED760"/>
<path d="M241.059 153.276H238.062C238.062 115.215 207.139 84.2501 169.13 84.2501C131.121 84.2501 100.198 115.215 100.198 153.276H97.2009C97.2009 113.56 129.468 81.2489 169.13 81.2489C208.792 81.2489 241.059 113.56 241.059 153.276Z" fill="#1ED760"/>
<path d="M66.2792 95.4338L66.2797 95.4326L64.8717 94.8454L56.8013 91.4292L53.7773 99.0748L61.8278 102.487L61.8701 102.525L61.3276 103.806C61.2533 103.923 61.19 104.047 61.1383 104.176C60.7583 105.137 61.4761 106.092 62.1546 106.361C62.8331 106.631 63.6913 106.07 64.0713 105.109C64.4461 104.161 64.0798 102.957 63.4186 102.666L63.4191 102.665L62.0111 102.078L57.1945 100.203L59.9466 93.2446L59.5387 93.0829L56.7856 100.044L56.19 99.812L58.9538 92.8239L64.6884 95.2543L64.7306 95.2927L64.1882 96.5736C64.1139 96.6907 64.0506 96.8145 63.9989 96.9433C63.6188 97.9041 64.3366 98.8599 65.0151 99.1289C65.6936 99.398 66.5518 98.8373 66.9318 97.8765C67.3067 96.9287 66.9403 95.7247 66.2792 95.4338Z" fill="white"/>
<path d="M94.1434 113.19C91.221 111.517 91.8058 107.845 91.8058 107.845C91.7322 105.46 89.7642 105.797 89.7642 105.797L89.048 105.961C88.7152 105.806 88.3489 105.738 87.9829 105.764L86.8934 105.947C89.3743 106.531 89.1705 108.609 89.1705 108.609L89.5181 111.039L83.0173 108.413L83.7637 106.651C83.8668 106.488 83.9548 106.316 84.0266 106.137C84.5544 104.803 83.5575 103.475 82.6151 103.102C81.6727 102.728 80.4808 103.507 79.953 104.841C79.4324 106.158 79.9412 107.83 80.8595 108.234L80.8588 108.236L82.8144 109.051L82.8289 109.005L94.1434 113.19ZM90.8422 108.92L91.0506 111.246C90.3146 110.212 89.9688 108.95 90.0748 107.684C90.0575 107.234 89.9059 106.799 89.6394 106.436C90.049 106.699 90.3781 107.07 90.5904 107.508C90.8026 107.947 90.8898 108.435 90.8422 108.92Z" fill="white"/>
<path d="M44.5545 78.7907L44.5553 78.7892L42.5997 77.9736L34.4265 74.7921L36.4893 72.9543C36.8929 72.4155 37.4888 72.0539 38.1525 71.945C38.8162 71.8362 39.4962 71.9885 40.0503 72.3701L39.4102 71.4174C39.4102 71.4174 38.2068 69.822 36.5222 71.51C36.5222 71.51 34.4378 74.587 31.1638 73.8026L42.3452 78.5416L42.4039 78.5949L41.6504 80.3739C41.5473 80.5366 41.4592 80.7085 41.3875 80.8874C40.8597 82.2219 41.8566 83.5493 42.799 83.9231C43.7414 84.2968 44.9332 83.518 45.4611 82.1834C45.9817 80.8671 45.4729 79.1948 44.5545 78.7907Z" fill="white"/>
<path d="M74.4771 68.3778L73.7236 70.1568C73.6205 70.3195 73.5325 70.4914 73.4608 70.6703C72.9329 72.0048 73.9298 73.3322 74.8722 73.706C75.8146 74.0797 77.0065 73.3009 77.5343 71.9664C78.0549 70.65 77.5461 68.9778 76.6278 68.5737L76.6286 68.5721L74.673 67.7566L67.9831 65.1525L71.8055 55.488L71.239 55.2633L67.4151 64.9314L66.5879 64.6094L70.4267 54.9036L78.3914 58.2793L78.4501 58.3325L77.6966 60.1115C77.5935 60.2743 77.5055 60.4461 77.4338 60.625C76.9059 61.9595 77.9028 63.287 78.8452 63.6607C79.7876 64.0345 80.9795 63.2556 81.5073 61.9211C82.028 60.6047 81.5192 58.9325 80.6008 58.5284L80.6016 58.5268L78.646 57.7113L67.4371 52.9664L63.2371 63.5856L74.4184 68.3246L74.4771 68.3778Z" fill="white"/>
<path d="M39.043 13.9929L39.0444 13.9902L35.6779 12.5864L21.6082 7.10944L25.1592 3.94574C25.1592 3.94574 27.5213 0.663832 31.2893 2.94017L30.1874 1.30012C30.1874 1.30012 28.1157 -1.44638 25.2158 1.45948C25.2158 1.45948 21.6277 6.75631 15.9917 5.40614L35.2398 13.564L35.3408 13.6557L34.0438 16.7182C33.8662 16.9983 33.7147 17.2942 33.5912 17.6021C32.6826 19.8994 34.3986 22.1845 36.0209 22.8279C37.6432 23.4713 39.695 22.1305 40.6036 19.8332C41.4998 17.5672 40.6239 14.6885 39.043 13.9929Z" fill="white"/>
<path d="M49.3744 59.9994C42.3871 55.9989 43.7854 47.2203 43.7854 47.2203C43.6096 41.5173 38.9042 42.3246 38.9042 42.3246L37.1917 42.7159C36.3961 42.3461 35.5202 42.1839 34.6452 42.2443L32.0402 42.6833C37.972 44.0789 37.4846 49.0479 37.4846 49.0479L38.3156 54.8578L22.7728 48.5791L24.5573 44.3655C24.804 43.9765 25.0144 43.5655 25.1859 43.1379C26.4479 39.9471 24.0644 36.7733 21.8112 35.8797C19.558 34.9861 16.7084 36.8483 15.4464 40.0391C14.2016 43.1863 15.4181 47.1846 17.6138 48.1506L17.612 48.1544L22.2876 50.1043L22.3224 49.9939L49.3744 59.9994ZM41.4815 49.7909L41.9816 55.3713C39.047 51.4703 39.6468 46.8356 39.6468 46.8356C39.6054 45.7593 39.2428 44.7201 38.6058 43.8522C41.9769 45.8723 41.4815 49.7909 41.4815 49.7909Z" fill="white"/>
</svg>
