<svg width="100" height="27" viewBox="0 0 100 27" fill="none" xmlns="http://www.w3.org/2000/svg">
<path d="M31.0725 19.3071V4.55262H37.311C38.3276 4.55262 39.199 4.72426 39.9252 5.06754C40.6514 5.41083 41.2059 5.90594 41.5888 6.5529C41.9717 7.18665 42.1632 7.95904 42.1632 8.87005C42.1632 9.51701 41.9849 10.1376 41.6284 10.7317C41.2719 11.3126 40.6844 11.8012 39.8658 12.1972V10.6921C40.6448 10.9958 41.2455 11.3588 41.668 11.7813C42.0905 12.2039 42.381 12.666 42.5394 13.1677C42.6979 13.6562 42.7771 14.1711 42.7771 14.7125C42.7771 16.1648 42.2952 17.2937 41.3314 18.0991C40.3675 18.9045 39.0274 19.3071 37.311 19.3071H31.0725ZM34.1422 16.6335H37.6675C38.288 16.6335 38.7831 16.4553 39.1528 16.0988C39.5225 15.7423 39.7074 15.2802 39.7074 14.7125C39.7074 14.1315 39.5225 13.6628 39.1528 13.3063C38.7831 12.9498 38.288 12.7716 37.6675 12.7716H34.1422V16.6335ZM34.1422 10.0979H37.5288C38.0042 10.0979 38.3804 9.96591 38.6577 9.70185C38.9482 9.42459 39.0934 9.0615 39.0934 8.61259C39.0934 8.16368 38.9482 7.8072 38.6577 7.54314C38.3804 7.26587 38.0042 7.12724 37.5288 7.12724H34.1422V10.0979Z" fill="#1ED760"/>
<path d="M47.0832 19.5448C46.3042 19.5448 45.6309 19.4194 45.0631 19.1685C44.4954 18.9177 44.0597 18.5612 43.756 18.0991C43.4524 17.6237 43.3005 17.0626 43.3005 16.4157C43.3005 15.8083 43.4392 15.2736 43.7164 14.8115C43.9937 14.3362 44.4162 13.9401 44.9839 13.6232C45.5649 13.3063 46.2844 13.0819 47.1426 12.9498L50.45 12.4151V14.5936L47.6774 15.0887C47.2549 15.168 46.9314 15.3066 46.7069 15.5046C46.4825 15.6895 46.3703 15.9601 46.3703 16.3166C46.3703 16.6467 46.4957 16.9042 46.7466 17.089C46.9974 17.2739 47.3077 17.3663 47.6774 17.3663C48.1659 17.3663 48.595 17.2607 48.9647 17.0494C49.3344 16.8382 49.6182 16.5543 49.8163 16.1978C50.0275 15.8281 50.1332 15.4254 50.1332 14.9897V12.1774C50.1332 11.7681 49.9681 11.4249 49.638 11.1476C49.3212 10.8703 48.8855 10.7317 48.3309 10.7317C47.8028 10.7317 47.3341 10.8769 46.9248 11.1674C46.5287 11.4579 46.2382 11.8408 46.0534 12.3161L43.6768 11.1872C43.8881 10.5799 44.2247 10.0583 44.6869 9.62263C45.149 9.18693 45.7035 8.85025 46.3505 8.61259C46.9974 8.37494 47.7038 8.25611 48.4696 8.25611C49.3806 8.25611 50.186 8.42115 50.8857 8.75122C51.5855 9.0813 52.1268 9.54341 52.5097 10.1376C52.9058 10.7185 53.1039 11.3985 53.1039 12.1774V19.3071H50.3312V17.5643L51.0046 17.4455C50.6877 17.9208 50.3378 18.3169 49.9549 18.6338C49.572 18.9375 49.1429 19.1619 48.6676 19.3071C48.1923 19.4656 47.6642 19.5448 47.0832 19.5448Z" fill="#1ED760"/>
<path d="M54.4904 19.3071V4.31496H57.4611V19.3071H54.4904Z" fill="#1ED760"/>
<path d="M64.0514 19.5448C62.9027 19.5448 61.9059 19.2939 61.0609 18.7922C60.2159 18.2773 59.5623 17.5907 59.1002 16.7325C58.6381 15.8743 58.4071 14.9237 58.4071 13.8807C58.4071 12.798 58.6447 11.8342 59.12 10.9892C59.6085 10.1442 60.2621 9.4774 61.0807 8.98888C61.8993 8.50037 62.8235 8.25611 63.8534 8.25611C64.7116 8.25611 65.4707 8.39474 66.1309 8.67201C66.7911 8.93607 67.3456 9.31236 67.7945 9.80088C68.2566 10.2894 68.6065 10.8571 68.8441 11.5041C69.0818 12.1378 69.2006 12.831 69.2006 13.5836C69.2006 13.7948 69.1874 14.0061 69.161 14.2173C69.1478 14.4154 69.1148 14.587 69.062 14.7323H60.9619V12.5537H67.3786L65.9725 13.5836C66.1045 13.0158 66.0979 12.5141 65.9527 12.0784C65.8074 11.6295 65.55 11.2796 65.1803 11.0288C64.8238 10.7647 64.3815 10.6327 63.8534 10.6327C63.3384 10.6327 62.8961 10.7581 62.5264 11.009C62.1567 11.2598 61.8795 11.6295 61.6946 12.118C61.5098 12.6065 61.4372 13.2007 61.4768 13.9005C61.424 14.5078 61.4966 15.0425 61.6946 15.5046C61.8927 15.9668 62.1964 16.3298 62.6057 16.5939C63.015 16.8448 63.5101 16.9702 64.091 16.9702C64.6191 16.9702 65.068 16.8646 65.4377 16.6533C65.8206 16.4421 66.1177 16.1516 66.3289 15.7819L68.7055 16.9108C68.4943 17.4389 68.1576 17.901 67.6955 18.2971C67.2466 18.6932 66.7118 19.0035 66.0913 19.2279C65.4707 19.4392 64.7908 19.5448 64.0514 19.5448Z" fill="#1ED760"/>
<path d="M75.3664 19.426C74.0593 19.426 73.0427 19.0761 72.3165 18.3763C71.6035 17.6634 71.247 16.6731 71.247 15.4056V11.0684H69.425V8.49376H69.524C70.0785 8.49376 70.5011 8.35513 70.7915 8.07786C71.0952 7.8006 71.247 7.3847 71.247 6.83016V6.03798H74.2177V8.49376H76.7527V11.0684H74.2177V15.2076C74.2177 15.5773 74.2837 15.8875 74.4158 16.1384C74.5478 16.376 74.7525 16.5543 75.0297 16.6731C75.307 16.7919 75.6503 16.8514 76.0596 16.8514C76.152 16.8514 76.2576 16.8448 76.3764 16.8316C76.4953 16.8184 76.6207 16.8052 76.7527 16.7919V19.3071C76.5547 19.3336 76.3302 19.36 76.0794 19.3864C75.8285 19.4128 75.5909 19.426 75.3664 19.426Z" fill="#1ED760"/>
<path d="M77.7014 19.3071V8.49376H80.6721V19.3071H77.7014ZM77.7014 7.52333V4.55262H80.6721V7.52333H77.7014Z" fill="#1ED760"/>
<path d="M83.3609 19.3071V11.0684H81.5388V8.49376H83.3609V8.33533C83.3609 7.47712 83.5259 6.75095 83.856 6.1568C84.1993 5.56266 84.6878 5.10715 85.3215 4.79028C85.9553 4.4734 86.7211 4.31496 87.6189 4.31496C87.7905 4.31496 87.9754 4.32817 88.1734 4.35457C88.3715 4.36778 88.5365 4.38758 88.6685 4.41399V6.94899C88.5365 6.92259 88.4177 6.90938 88.312 6.90938C88.2196 6.89618 88.1206 6.88958 88.015 6.88958C87.4604 6.88958 87.0379 7.01501 86.7475 7.26587C86.4702 7.50353 86.3316 7.86001 86.3316 8.33533V8.49376H88.6487V11.0684H86.3316V19.3071H83.3609Z" fill="#1ED760"/>
<path d="M91.068 23.7038C90.7511 23.7038 90.4409 23.6774 90.1372 23.6246C89.8467 23.5718 89.5893 23.4859 89.3648 23.3671V20.9311C89.5496 20.984 89.7675 21.0302 90.0184 21.0698C90.2692 21.1094 90.5003 21.1292 90.7115 21.1292C91.2925 21.1292 91.7084 20.9906 91.9592 20.7133C92.2101 20.436 92.4147 20.1191 92.5732 19.7627L93.3059 18.0793L93.2663 20.5548L88.5132 8.49376H91.7018L94.8507 17.0692H93.6624L96.8114 8.49376H99.9999L95.3656 20.3172C95.0752 21.0698 94.7187 21.6969 94.2962 22.1986C93.8737 22.7004 93.3918 23.0767 92.8504 23.3275C92.3223 23.5784 91.7282 23.7038 91.068 23.7038Z" fill="#1ED760"/>
<path fill-rule="evenodd" clip-rule="evenodd" d="M23.2482 21.7754C23.216 21.8157 23.1837 21.8561 23.1515 21.8884C23.0548 21.9852 22.9903 22.0499 23.0225 22.1467C22.9564 22.1908 22.9054 22.25 22.8591 22.3037C22.8377 22.3285 22.8172 22.3522 22.7968 22.3726L22.5711 22.5986C22.527 22.6648 22.4679 22.716 22.4142 22.7623C22.3894 22.7838 22.3658 22.8042 22.3454 22.8246C22.325 22.8451 22.3046 22.8687 22.2831 22.8936C22.2369 22.9473 22.1858 23.0065 22.1197 23.0506C22.0875 23.0828 22.0472 23.1151 22.007 23.1473C21.9666 23.1797 21.9262 23.212 21.8939 23.2443C21.7974 23.341 21.7326 23.4058 21.636 23.4703C21.5877 23.5025 21.5475 23.5348 21.5072 23.567C21.4668 23.5993 21.4265 23.6317 21.378 23.664C21.3297 23.6962 21.2895 23.7285 21.2493 23.7607C21.2089 23.793 21.1685 23.8253 21.1201 23.8576C21.0717 23.8899 21.0314 23.9222 20.9911 23.9545C20.9508 23.9868 20.9105 24.0191 20.8622 24.0514C20.7979 24.1157 20.7014 24.1801 20.605 24.2445L20.6041 24.2451C20.5558 24.2774 20.5155 24.3016 20.4752 24.3258C20.4349 24.35 20.3946 24.3742 20.3462 24.4065C20.2495 24.4388 20.1528 24.5034 20.0561 24.568C20.017 24.607 19.9661 24.6343 19.9106 24.664C19.8744 24.6834 19.8362 24.7038 19.7981 24.7293C19.7497 24.7616 19.7013 24.7858 19.653 24.81C19.6046 24.8342 19.5563 24.8584 19.5079 24.8907C19.4596 24.9069 19.4113 24.9311 19.363 24.9552C19.3145 24.9795 19.2661 25.0037 19.2176 25.0199C19.1209 25.0845 19.0242 25.149 18.9275 25.1813C18.8792 25.1974 18.831 25.2216 18.7827 25.2457C18.7342 25.27 18.6857 25.2943 18.6372 25.3104C18.5889 25.3266 18.5407 25.3507 18.4924 25.3749C18.4439 25.3992 18.3955 25.4234 18.3471 25.4396C18.2503 25.5041 18.1536 25.5365 18.0569 25.5687C17.9284 25.633 17.832 25.6652 17.7357 25.6974L17.7344 25.6979L17.4443 25.7947L17.1218 25.8916L16.8316 25.9884L16.5091 26.0852C16.4499 26.1001 16.3974 26.1081 16.3487 26.1156C16.2913 26.1244 16.239 26.1324 16.1867 26.1498C16.09 26.1498 15.9609 26.1821 15.8642 26.2144C15.8158 26.2306 15.7593 26.2386 15.7028 26.2467C15.6465 26.2548 15.5901 26.2628 15.5418 26.2789C15.4934 26.2951 15.4369 26.3032 15.3804 26.3113C15.324 26.3194 15.2677 26.3274 15.2193 26.3435C15.171 26.3435 15.1145 26.3516 15.0581 26.3597C15.0017 26.3678 14.9453 26.3758 14.8969 26.3758C14.8325 26.3758 14.776 26.3839 14.7196 26.392C14.6632 26.4 14.6067 26.4081 14.5422 26.4081C14.4455 26.4404 14.3165 26.4404 14.2198 26.4404C14.0908 26.4727 13.9941 26.4727 13.8651 26.4727H12.3496C5.4493 26.0207 0 20.2742 0 13.2686V1.45277C0 0.355121 1.12856 -0.322837 2.09589 0.161419C3.06322 0.645675 5.48155 2.48585 5.48155 2.48585C5.48155 2.48585 5.96522 2.13073 6.02971 2.09844C6.0941 2.06621 6.19064 2.00178 6.28724 1.93731L6.48112 1.84017C6.51 1.8209 6.536 1.80163 6.56085 1.78321C6.61923 1.73994 6.67122 1.7014 6.73908 1.67875L6.93255 1.5819C6.98091 1.56576 7.02121 1.54155 7.06151 1.51734C7.10182 1.49313 7.14213 1.46891 7.1905 1.45277L7.38397 1.35592C7.43233 1.33978 7.47264 1.31557 7.51294 1.29135C7.55325 1.26714 7.59356 1.24293 7.64193 1.22678L7.83539 1.12993C7.88378 1.11378 7.92411 1.09763 7.96443 1.08148C8.00472 1.06535 8.04501 1.04921 8.09334 1.03308C8.19006 1.00081 8.25454 0.968527 8.31902 0.936251C8.36738 0.92011 8.40773 0.903946 8.44803 0.887805C8.48834 0.871662 8.52864 0.85552 8.57701 0.839377C8.6415 0.839377 8.73824 0.807093 8.80273 0.774809C8.85109 0.758668 8.8914 0.742526 8.9317 0.726384C8.97201 0.710242 9.01231 0.6941 9.06068 0.677958C9.09292 0.661817 9.13323 0.653746 9.17353 0.645675C9.21384 0.637604 9.25415 0.629533 9.28639 0.61339C9.36293 0.61339 9.41929 0.593176 9.48741 0.568743C9.50537 0.562299 9.52415 0.555561 9.54434 0.548824C9.57658 0.532681 9.61688 0.52461 9.65718 0.516539C9.69748 0.508468 9.73778 0.500397 9.77002 0.484256C9.81841 0.46812 9.85872 0.460049 9.89902 0.451981C9.93934 0.443907 9.97966 0.435837 10.028 0.419689C10.0603 0.403547 10.1006 0.395476 10.1409 0.387405C10.1812 0.379334 10.2215 0.371263 10.2537 0.355121C10.3021 0.338979 10.3424 0.330908 10.3827 0.322837C10.423 0.314766 10.4633 0.306695 10.5116 0.290554C10.5439 0.290554 10.5843 0.282477 10.6246 0.274403C10.6649 0.266335 10.7052 0.25827 10.7374 0.25827C10.8019 0.225986 10.8986 0.193702 10.9953 0.193702C11.0437 0.193702 11.084 0.185635 11.1243 0.177567C11.1646 0.169494 11.2049 0.161419 11.2533 0.161419C11.2823 0.161419 11.3178 0.154896 11.3569 0.147715C11.4048 0.138919 11.458 0.129135 11.5113 0.129135C11.5596 0.129135 11.5999 0.121064 11.6402 0.112993C11.6805 0.104922 11.7208 0.0968512 11.7692 0.0968512C11.7982 0.0968512 11.8337 0.0903286 11.8728 0.083147C11.9207 0.0743514 11.9739 0.0645674 12.0272 0.0645674C12.1239 0.0322837 12.1884 0.0322835 12.2851 0.0322835C12.3818 0 12.4786 0 12.5754 0H13.8006C13.8812 0 13.9538 0.00807327 14.0264 0.0161453C14.0989 0.024215 14.1714 0.0322835 14.252 0.0322835H14.4455C14.6712 0.0322835 14.8647 0.0645675 15.0581 0.0968512H15.0904C21.5071 1.0008 26.4727 6.52131 26.4727 13.2041V13.2363C26.4404 13.4623 26.4404 13.656 26.4404 13.882C26.4082 13.9466 26.4082 14.0435 26.4082 14.108C26.4082 14.1887 26.4001 14.2614 26.3921 14.334C26.384 14.4066 26.3759 14.4793 26.3759 14.56C26.3759 14.589 26.3694 14.6245 26.3623 14.6636C26.3535 14.7116 26.3437 14.7649 26.3437 14.8183C26.3276 14.8828 26.3195 14.9474 26.3115 15.0119C26.3034 15.0765 26.2953 15.141 26.2792 15.2056C26.2631 15.2541 26.255 15.3025 26.247 15.3509C26.2389 15.3993 26.2309 15.4477 26.2147 15.4962C26.1976 15.5476 26.1896 15.6082 26.181 15.673C26.1734 15.7302 26.1654 15.7908 26.1503 15.8514C26.1341 15.8998 26.126 15.9483 26.1179 15.9968C26.1098 16.0452 26.1018 16.0935 26.0857 16.1419L25.989 16.497L25.8922 16.7875L25.7955 17.1427L25.6988 17.4332C25.6468 17.5114 25.6157 17.6106 25.5887 17.6969C25.5823 17.7175 25.5761 17.7374 25.5698 17.7561L25.4731 18.0466C25.457 18.0948 25.4329 18.1511 25.4088 18.2074C25.3846 18.2641 25.3603 18.3208 25.3441 18.3695C25.328 18.4178 25.3038 18.4662 25.2796 18.5146C25.2555 18.5631 25.2312 18.6115 25.2151 18.66C25.1829 18.7892 25.1506 18.886 25.0862 18.9828C25.0764 19.0023 25.0637 19.0249 25.0498 19.0494C25.0178 19.106 24.9797 19.1736 24.9572 19.2411C24.925 19.2895 24.9008 19.3379 24.8767 19.3863C24.8525 19.4347 24.8283 19.4832 24.796 19.5316C24.7637 19.5801 24.7394 19.6206 24.7152 19.661C24.6911 19.7013 24.6669 19.7416 24.6347 19.7899C24.6025 19.8383 24.5783 19.8868 24.5541 19.9352C24.5299 19.9836 24.5057 20.0321 24.4735 20.0805C24.4413 20.1288 24.4172 20.1691 24.3931 20.2094C24.3688 20.2498 24.3446 20.2902 24.3123 20.3388L24.1189 20.6293C24.0866 20.6777 24.0544 20.7179 24.0222 20.7582C23.9899 20.7986 23.9576 20.8391 23.9253 20.8876C23.8609 20.9522 23.7964 21.049 23.7319 21.1459C23.6997 21.1943 23.6674 21.2346 23.6352 21.275C23.6029 21.3153 23.5707 21.3557 23.5385 21.4041C23.5062 21.4526 23.4739 21.493 23.4415 21.5335C23.4093 21.5738 23.3771 21.6141 23.3449 21.6624C23.3127 21.6947 23.2804 21.735 23.2482 21.7754ZM21.0127 11.6992C21.2529 11.838 21.4236 11.9074 21.7012 11.9074C22.3523 11.9074 22.9394 11.3896 22.9394 10.6638C22.9394 10.0287 22.6672 9.69775 22.2509 9.45757C19.2674 7.71764 15.1844 6.90637 11.2882 6.90637C8.99857 6.90637 6.8957 7.1679 5.017 7.71763C4.53665 7.8564 4.08832 8.26737 4.08832 8.99323C4.08832 9.70308 4.62738 10.2528 5.33189 10.2528C5.54554 10.2528 5.74806 10.1934 5.92086 10.1427C5.95527 10.1327 5.98849 10.1229 6.0204 10.1141C10.4183 8.88649 17.2126 9.43089 21.0127 11.6992ZM19.4613 15.7884C19.6298 15.88 19.8034 15.9743 20.0466 15.9743C20.6284 15.9743 21.0767 15.51 21.0821 14.9336C21.0821 14.4692 20.9113 14.1383 20.479 13.8821C17.8424 12.313 14.4959 11.4537 11.0321 11.4537C8.81177 11.4537 7.29599 11.7633 5.81225 12.1796C5.26251 12.3343 4.98497 12.7133 4.98497 13.2844C4.98497 13.8554 5.44931 14.3198 6.0204 14.3198C6.19705 14.3198 6.31884 14.2823 6.47285 14.2348C6.52823 14.2177 6.58777 14.1994 6.65553 14.181C11.0801 12.9801 16.0544 13.7754 19.3902 15.7502C19.4139 15.7627 19.4375 15.7755 19.4613 15.7884ZM18.0398 19.2834C18.248 19.4062 18.3868 19.4756 18.6109 19.4756C19.0432 19.4756 19.4222 19.1393 19.4222 18.6536C19.4222 18.1679 19.23 17.9811 18.9045 17.773C15.0937 15.494 10.6264 15.4086 6.25524 16.3746C5.85494 16.46 5.52937 16.7215 5.52937 17.2713C5.52937 17.7036 5.85494 18.1146 6.37265 18.1146C6.49419 18.1146 6.68814 18.0619 6.86662 18.0134C6.91543 18.0002 6.96308 17.9873 7.00778 17.9758C10.8346 17.1912 14.7094 17.2766 18.0398 19.2834Z" fill="#1ED760"/>
</svg>
