<svg width="40" height="40" viewBox="0 0 40 40" fill="none" xmlns="http://www.w3.org/2000/svg">
<path fill-rule="evenodd" clip-rule="evenodd" d="M20 40C31.0457 40 40 31.0457 40 20C40 8.9543 31.0457 0 20 0C8.9543 0 0 8.9543 0 20C0 31.0457 8.9543 40 20 40ZM23.5 12C22.6716 12 22 12.6716 22 13.5V26.5C22 27.3284 22.6716 28 23.5 28H25.5C26.3284 28 27 27.3284 27 26.5V13.5C27 12.6716 26.3284 12 25.5 12H23.5ZM14.5 12C13.6716 12 13 12.6716 13 13.5V26.5C13 27.3284 13.6716 28 14.5 28H16.5C17.3284 28 18 27.3284 18 26.5V13.5C18 12.6716 17.3284 12 16.5 12H14.5Z" fill="white"/>
</svg>
